{
  "asset": {
    "generator": "arbor-web scripts/bake-cherry.mjs",
    "version": "2.0",
    "extras": {
      "source": "WeepingCherryGenerator in components/BareThreeCanvas.tsx",
      "seed": 20260705
    }
  },
  "scene": 0,
  "scenes": [
    {
      "name": "Cherry_Scene",
      "nodes": [
        0
      ]
    }
  ],
  "nodes": [
    {
      "mesh": 0,
      "name": "Cherry_Upper_Trunk"
    }
  ],
  "meshes": [
    {
      "name": "Cherry_Upper_Trunk",
      "primitives": [
        {
          "attributes": {
            "POSITION": 0,
            "NORMAL": 1
          },
          "indices": 2,
          "mode": 4
        }
      ]
    }
  ],
  "accessors": [
    {
      "bufferView": 1,
      "componentType": 5126,
      "count": 6842,
      "type": "VEC3",
      "min": [
        -2.991359233856201,
        1.948277473449707,
        -2.907717704772949
      ],
      "max": [
        3.3048503398895264,
        6.294708728790283,
        2.51507568359375
      ]
    },
    {
      "bufferView": 2,
      "componentType": 5126,
      "count": 6842,
      "type": "VEC3"
    },
    {
      "bufferView": 0,
      "componentType": 5125,
      "count": 41052,
      "type": "SCALAR"
    }
  ],
  "bufferViews": [
    {
      "buffer": 0,
      "byteOffset": 0,
      "byteLength": 164208,
      "target": 34963
    },
    {
      "buffer": 0,
      "byteOffset": 164208,
      "byteLength": 82104,
      "target": 34962
    },
    {
      "buffer": 0,
      "byteOffset": 246312,
      "byteLength": 82104,
      "target": 34962
    }
  ],
  "buffers": [
    {
      "byteLength": 328416,
      "uri": "scene.bin"
    }
  ]
}
